<svg xmlns="http://www.w3.org/2000/svg" xmlns:xlink="http://www.w3.org/1999/xlink" viewBox="0 0 350 116.13"><defs><style>.cls-1{fill:url(#linear-gradient);}.cls-2{fill:#2681ff;}.cls-3{fill:#0052cc;}.cls-4{fill:none;stroke:#8993a4;stroke-miterlimit:10;stroke-width:0.56px;}.cls-5{fill:#253858;}</style><linearGradient id="linear-gradient" x1="42.36" y1="55.23" x2="32.29" y2="72.67" gradientUnits="userSpaceOnUse"><stop offset="0" stop-color="#0052cc"/><stop offset="0.92" stop-color="#2684ff"/></linearGradient></defs><title>Gold Solution Partner</title><g id="logo"><path class="cls-1" d="M37.13,52.28a1.11,1.11,0,0,0-1.88.2L25.71,71.57a1.14,1.14,0,0,0,1,1.65H40a1.1,1.1,0,0,0,1-.63C43.9,66.66,42.16,57.66,37.13,52.28Z"/><path class="cls-2" d="M44.13,34.93a25.17,25.17,0,0,0-1.47,24.85l6.41,12.81a1.14,1.14,0,0,0,1,.63H63.37a1.14,1.14,0,0,0,1-1.65L46.07,34.92A1.08,1.08,0,0,0,44.13,34.93Z"/><path class="cls-3" d="M42.41,78c0,.77.36,1.38,1.75,1.64.83.17,1,.31,1,.58s-.17.44-.76.44a4.28,4.28,0,0,1-2-.55v1.25a4.12,4.12,0,0,0,2,.43c1.45,0,2-.65,2-1.61m0,0c0-.91-.48-1.34-1.84-1.63-.75-.17-.93-.33-.93-.57s.27-.43.77-.43a4.32,4.32,0,0,1,1.75.43V76.81a4,4,0,0,0-1.72-.36c-1.34,0-2,.58-2,1.54"/><polygon class="cls-3" points="61.1 76.53 61.1 81.73 62.2 81.73 62.2 77.77 62.67 78.82 64.23 81.73 65.63 81.73 65.63 76.53 64.52 76.53 64.52 79.89 64.1 78.92 62.84 76.53 61.1 76.53"/><rect class="cls-3" x="52.85" y="76.54" width="1.21" height="5.19"/><path class="cls-3" d="M51.45,80.2c0-.91-.48-1.34-1.84-1.63-.75-.17-.93-.33-.93-.57s.27-.43.77-.43A4.32,4.32,0,0,1,51.2,78V76.81a4,4,0,0,0-1.72-.36c-1.34,0-2,.58-2,1.54,0,.77.36,1.38,1.75,1.64.83.17,1,.31,1,.58s-.17.44-.76.44a4.28,4.28,0,0,1-2-.55v1.25a4.12,4.12,0,0,0,2,.43c1.45,0,2-.65,2-1.61"/><polygon class="cls-3" points="33.01 76.53 33.01 81.73 35.5 81.73 35.89 80.61 34.23 80.61 34.23 76.53 33.01 76.53"/><polygon class="cls-3" points="28.1 76.53 28.1 77.66 29.45 77.66 29.45 81.73 30.66 81.73 30.66 77.66 32.1 77.66 32.1 76.53 28.1 76.53"/><path class="cls-3" d="M26.34,76.54h-1.6l-1.81,5.19h1.38l.26-.87a3.44,3.44,0,0,0,1.94,0l.26.87h1.38Zm-.8,3.38a2.36,2.36,0,0,1-.67-.1l.67-2.27.67,2.27A2.36,2.36,0,0,1,25.54,79.92Z"/><path class="cls-3" d="M39.79,76.54h-1.6l-1.81,5.19h1.38l.26-.87a3.44,3.44,0,0,0,1.94,0l.26.87H41.6ZM39,79.92a2.36,2.36,0,0,1-.67-.1L39,77.55l.67,2.27A2.36,2.36,0,0,1,39,79.92Z"/><path class="cls-3" d="M58.42,76.54h-1.6L55,81.73h1.38l.26-.87a3.44,3.44,0,0,0,1.94,0l.26.87h1.38Zm-.8,3.38a2.36,2.36,0,0,1-.67-.1l.67-2.27.67,2.27A2.36,2.36,0,0,1,57.62,79.92Z"/></g><g id="type"><line class="cls-4" x1="88.33" y1="100.03" x2="88.33" y2="16.1"/><path class="cls-5" d="M120.3,45.25v8.37a12.93,12.93,0,0,1-5.77,1.22c-5.88,0-9-3.59-9-8.76,0-5.56,3.61-8.87,9.7-8.87a13.8,13.8,0,0,1,4.45.68v2.34a12.05,12.05,0,0,0-4.42-.75c-5.07,0-7.38,2.52-7.38,6.55s2.34,6.58,7.25,6.58a10.69,10.69,0,0,0,2.89-.36V47.49h-4.37V45.25Z"/><path class="cls-5" d="M123.4,48.06c0-3.9,2.29-6.73,6.19-6.73s6.14,2.83,6.14,6.73-2.26,6.79-6.14,6.79S123.4,52,123.4,48.06Zm2.18,0c0,2.47,1.22,4.71,4,4.71s4-2.24,4-4.71-1.2-4.65-4-4.65S125.58,45.59,125.58,48.06Z"/><path class="cls-5" d="M141.8,54.66c-2.13,0-3.48-1-3.48-3.41V36.15h2.24V51c0,1.17.78,1.59,1.74,1.59a5.58,5.58,0,0,0,.65,0v2A4.71,4.71,0,0,1,141.8,54.66Z"/><path class="cls-5" d="M153.79,52.24a4.58,4.58,0,0,1-4.39,2.6c-3.46,0-5.2-2.94-5.2-6.76,0-3.67,1.82-6.76,5.46-6.76a4.26,4.26,0,0,1,4.13,2.55V36.15H156V54.58h-2.24Zm-3.8.52c2,0,3.8-1.27,3.8-4.16v-1c0-2.89-1.64-4.16-3.54-4.16-2.52,0-3.82,1.66-3.82,4.68S147.68,52.76,150,52.76Z"/><path class="cls-5" d="M111.7,80.84a12,12,0,0,1-6.16-1.33V77.13a14.58,14.58,0,0,0,6.29,1.43c2.57,0,3.54-1,3.54-2.52s-.94-2.31-4.19-3.09c-3.85-.94-5.56-2.26-5.56-5.07,0-2.65,2-4.63,6-4.63a10.23,10.23,0,0,1,5.23,1.25v2.34a10.5,10.5,0,0,0-5.33-1.3c-2.24,0-3.56.78-3.56,2.34,0,1.4,1.09,2.11,4.11,2.86,3.61.91,5.64,2.08,5.64,5.15S115.93,80.84,111.7,80.84Z"/><path class="cls-5" d="M119.68,74.06c0-3.9,2.29-6.73,6.19-6.73S132,70.16,132,74.06s-2.26,6.79-6.14,6.79S119.68,78,119.68,74.06Zm2.18,0c0,2.47,1.22,4.71,4,4.71s4-2.24,4-4.71-1.2-4.65-4-4.65S121.86,71.59,121.86,74.06Z"/><path class="cls-5" d="M138.08,80.66c-2.13,0-3.48-1-3.48-3.41V62.15h2.24V77c0,1.17.78,1.59,1.74,1.59a5.58,5.58,0,0,0,.65,0v2A4.71,4.71,0,0,1,138.08,80.66Z"/><path class="cls-5" d="M141.13,67.58h2.24v7.85c0,2.34.94,3.38,3.07,3.38s3.51-1.38,3.51-4V67.58h2.24v13h-2.24V78.45a4.56,4.56,0,0,1-4.11,2.39c-3,0-4.71-2.05-4.71-5.64Z"/><path class="cls-5" d="M160.7,78.4a7.08,7.08,0,0,0,1.4-.18v2.16a5.38,5.38,0,0,1-1.51.21c-2.78,0-4.13-1.64-4.13-4.06V69.66h-2.11V67.58h2.11V64.83h2.18v2.76h3.46v2.08h-3.46v6.81A1.82,1.82,0,0,0,160.7,78.4Z"/><path class="cls-5" d="M166.11,62.59a1.56,1.56,0,1,1-1.56,1.56A1.46,1.46,0,0,1,166.11,62.59Zm-1.14,5h2.24v13H165Z"/><path class="cls-5" d="M169.8,74.06c0-3.9,2.29-6.73,6.19-6.73s6.14,2.83,6.14,6.73-2.26,6.79-6.14,6.79S169.8,78,169.8,74.06Zm2.18,0c0,2.47,1.22,4.71,4,4.71s4-2.24,4-4.71-1.2-4.65-4-4.65S172,71.59,172,74.06Z"/><path class="cls-5" d="M195.78,80.58h-2.24V72.73c0-2.34-.94-3.38-3.07-3.38s-3.51,1.38-3.51,4v7.23h-2.24v-13H187v2.13a4.56,4.56,0,0,1,4.11-2.39c3,0,4.71,2.05,4.71,5.64Z"/><path class="cls-5" d="M209.82,63.5c4.26,0,6.34,2.18,6.34,5.69,0,3.72-2.08,5.8-6.34,5.8h-3.41v5.59h-2.34V63.5Zm3.93,5.75c0-2.08-1.17-3.51-4.19-3.51h-3.15v7h3.15C212.57,72.86,213.74,71.43,213.74,69.25Z"/><path class="cls-5" d="M227,78.24a4.58,4.58,0,0,1-4.39,2.6c-3.46,0-5.2-2.94-5.2-6.76,0-3.67,1.82-6.76,5.46-6.76A4.26,4.26,0,0,1,227,69.87V67.58h2.24v13H227Zm-3.8.52c2,0,3.8-1.27,3.8-4.16v-1c0-2.89-1.64-4.16-3.54-4.16-2.52,0-3.82,1.66-3.82,4.68S220.92,78.76,223.23,78.76Z"/><path class="cls-5" d="M232.65,67.58h2.18v2.29a4.29,4.29,0,0,1,4.6-2.47v2.18c-2.86-.29-4.6.57-4.6,3.33v7.67h-2.18Z"/><path class="cls-5" d="M246.5,78.4a7.08,7.08,0,0,0,1.4-.18v2.16a5.39,5.39,0,0,1-1.51.21c-2.78,0-4.13-1.64-4.13-4.06V69.66h-2.11V67.58h2.11V64.83h2.18v2.76h3.46v2.08h-3.46v6.81A1.82,1.82,0,0,0,246.5,78.4Z"/><path class="cls-5" d="M261.82,80.58h-2.24V72.73c0-2.34-.94-3.38-3.07-3.38s-3.51,1.38-3.51,4v7.23h-2.24v-13H253v2.13a4.56,4.56,0,0,1,4.11-2.39c3,0,4.71,2.05,4.71,5.64Z"/><path class="cls-5" d="M271.15,80.84c-4.86,0-7-2.81-7-6.79s2.18-6.73,6.14-6.73,5.62,2.78,5.62,6.73v1h-9.49c.31,2.21,1.74,3.64,4.81,3.64a11.52,11.52,0,0,0,4-.7v2.05A9.3,9.3,0,0,1,271.15,80.84Zm-4.76-7.7h7.25c-.13-2.42-1.22-3.8-3.46-3.8S266.63,70.89,266.39,73.15Z"/><path class="cls-5" d="M278.56,67.58h2.18v2.29a4.29,4.29,0,0,1,4.6-2.47v2.18c-2.86-.29-4.6.57-4.6,3.33v7.67h-2.18Z"/></g></svg>